<svg width="20" height="16" viewBox="0 0 20 16" fill="none" xmlns="http://www.w3.org/2000/svg">
<path d="M10.245 0.000854492C10.779 0.00385449 12.115 0.0168544 13.535 0.0738544L14.039 0.0958543C15.468 0.162854 16.896 0.278854 17.605 0.475854C18.55 0.741854 19.292 1.51585 19.543 2.49785C19.943 4.05785 19.993 7.09985 19.999 7.83685L20 7.98885V8.16285C19.993 8.89985 19.943 11.9429 19.543 13.5019C19.289 14.4869 18.546 15.2619 17.605 15.5239C16.896 15.7209 15.468 15.8369 14.039 15.9039L13.535 15.9269C12.115 15.9829 10.779 15.9969 10.245 15.9989L10.01 15.9999H9.75498C8.62498 15.9929 3.89898 15.9419 2.39498 15.5239C1.45098 15.2579 0.707977 14.4839 0.456977 13.5019C0.0569766 11.9419 0.00697656 8.89985 0.000976562 8.16285V7.83685C0.00697656 7.09985 0.0569766 4.05685 0.456977 2.49785C0.710977 1.51285 1.45398 0.737854 2.39598 0.476854C3.89898 0.0578543 8.62598 0.00685449 9.75598 0.000854492H10.245ZM7.99998 4.50085V11.5009L14 8.00085L7.99998 4.50085Z" fill="#5D2187"/>
</svg>
