<svg width="20" height="20" viewBox="0 0 20 20" fill="none" xmlns="http://www.w3.org/2000/svg">
<path d="M7.04 19.5404C8 19.8304 8.97 20.0004 10 20.0004C12.6522 20.0004 15.1957 18.9468 17.0711 17.0714C18.9464 15.1961 20 12.6525 20 10.0004C20 8.68715 19.7413 7.38679 19.2388 6.17353C18.7362 4.96028 17.9997 3.85788 17.0711 2.9293C16.1425 2.00071 15.0401 1.26412 13.8268 0.761571C12.6136 0.259024 11.3132 0.000366211 10 0.000366211C8.68678 0.000366211 7.38642 0.259024 6.17317 0.761571C4.95991 1.26412 3.85752 2.00071 2.92893 2.9293C1.05357 4.80466 0 7.3482 0 10.0004C0 14.2504 2.67 17.9004 6.44 19.3404C6.35 18.5604 6.26 17.2704 6.44 16.3804L7.59 11.4404C7.59 11.4404 7.3 10.8604 7.3 9.94037C7.3 8.56037 8.16 7.53037 9.14 7.53037C10 7.53037 10.4 8.16037 10.4 8.97037C10.4 9.83037 9.83 11.0604 9.54 12.2404C9.37 13.2204 10.06 14.0804 11.06 14.0804C12.84 14.0804 14.22 12.1804 14.22 9.50037C14.22 7.10037 12.5 5.46037 10.03 5.46037C7.21 5.46037 5.55 7.56037 5.55 9.77037C5.55 10.6304 5.83 11.5004 6.29 12.0704C6.38 12.1304 6.38 12.2104 6.35 12.3604L6.06 13.4504C6.06 13.6204 5.95 13.6804 5.78 13.5604C4.5 13.0004 3.76 11.1804 3.76 9.71037C3.76 6.55037 6 3.68037 10.32 3.68037C13.76 3.68037 16.44 6.15037 16.44 9.43037C16.44 12.8704 14.31 15.6304 11.26 15.6304C10.29 15.6304 9.34 15.1104 9 14.5004L8.33 16.8704C8.1 17.7304 7.47 18.8804 7.04 19.5704V19.5404Z" fill="#5D2187"/>
</svg>
